<?xml version="1.0" encoding="UTF-8"?>
<svg version="1.1" xmlns="http://www.w3.org/2000/svg" width="980" height="980">
<path d="M0 0 C0.94224426 -0.00701431 1.88448853 -0.01402863 2.85528564 -0.02125549 C5.88013543 -0.03866598 8.90478944 -0.04510802 11.9296875 -0.046875 C13.47985565 -0.04788712 13.47985565 -0.04788712 15.06134033 -0.04891968 C30.20727736 -0.03319013 44.88263372 0.39556821 59.8046875 3.203125 C61.22587891 3.45255859 61.22587891 3.45255859 62.67578125 3.70703125 C114.25705967 12.85745515 164.12274623 36.11923317 202.5 72.046875 C204.5579705 73.97229825 206.65936067 75.81408167 208.8046875 77.640625 C217.71696931 85.42292425 225.44901347 93.95561394 232.8046875 103.203125 C233.52140625 104.05261719 234.238125 104.90210938 234.9765625 105.77734375 C266.64834798 143.34547227 286.24099309 190.12582089 294.8046875 238.203125 C294.96984863 239.07759277 295.13500977 239.95206055 295.30517578 240.85302734 C300.63098208 269.96045888 300.27049021 303.15259877 294.8046875 332.203125 C294.55525391 333.62431641 294.55525391 333.62431641 294.30078125 335.07421875 C285.07646274 387.07204386 261.33785965 437.74715432 224.8046875 476.203125 C223.6728215 477.50970857 222.54738598 478.82190162 221.4296875 480.140625 C214.14097328 488.49013801 206.24355165 496.12265227 197.55859375 503.00390625 C194.71993923 505.27080341 191.98921665 507.63889689 189.2421875 510.015625 C181.55389126 516.42253853 173.25000042 521.85163959 164.8046875 527.203125 C164.1230957 527.63625 163.44150391 528.069375 162.73925781 528.515625 C122.54642696 553.77179756 73.37080117 570.16724027 25.609375 570.40625 C24.66713074 570.41326431 23.72488647 570.42027863 22.75408936 570.42750549 C19.72923957 570.44491598 16.70458556 570.45135802 13.6796875 570.453125 C12.64624207 570.45379974 11.61279663 570.45447449 10.54803467 570.45516968 C-4.59235435 570.43944589 -19.28078047 570.03070588 -34.1953125 567.203125 C-35.17467773 567.02620117 -36.15404297 566.84927734 -37.16308594 566.66699219 C-110.5997672 553.21560388 -177.46024989 511.44604684 -220.50073242 450.20678711 C-245.20151344 414.39698145 -261.56365205 375.04791172 -269.1953125 332.203125 C-269.36047363 331.32865723 -269.52563477 330.45418945 -269.69580078 329.55322266 C-275.01168759 300.50000466 -274.70797734 267.16097718 -269.1953125 238.203125 C-269.00727051 237.14738281 -268.81922852 236.09164062 -268.62548828 235.00390625 C-261.51773283 195.69355151 -246.55715097 156.80569067 -223.1953125 124.203125 C-222.69128906 123.4930127 -222.18726563 122.78290039 -221.66796875 122.05126953 C-214.38645221 111.82477473 -206.86198616 102.28182085 -198.1953125 93.203125 C-196.99911359 91.835686 -195.81065577 90.46140605 -194.6328125 89.078125 C-188.08248863 81.54055136 -180.87870577 74.57627075 -173.1953125 68.203125 C-172.68935547 67.78337402 -172.18339844 67.36362305 -171.66210938 66.93115234 C-123.91417849 27.52951592 -62.71462297 0.31383914 0 0 Z " fill="#000000" transform="translate(477.1953125,204.796875)"/>
<path d="M0 0 C8.25314539 7.41553566 8.25314539 7.41553566 10.41308594 12.13623047 C9.28374994 15.52423846 8.61193362 15.96985651 5.78808594 17.94873047 C5.06234375 18.47853516 4.33660156 19.00833984 3.58886719 19.55419922 C2.87085938 20.07626953 2.15285156 20.59833984 1.41308594 21.13623047 C-10.82513309 30.13253717 -20.25919812 45.31051093 -23.58691406 60.13623047 C-24.7181201 68.08794346 -24.81199571 76.11903656 -24.58691406 84.13623047 C-24.57015625 85.01794922 -24.55339844 85.89966797 -24.53613281 86.80810547 C-23.49748519 106.86884244 -12.452698 123.0667703 1.85058594 136.38623047 C7.05337637 140.89409634 12.84608398 144.94722982 19.41308594 147.13623047 C17.04822435 166.05512319 4.59159716 186.01260534 -6.58691406 201.13623047 C-7.07192383 201.80477051 -7.55693359 202.47331055 -8.05664062 203.16210938 C-11.48535734 207.88503059 -14.99680887 212.53497562 -18.58691406 217.13623047 C-19.27398438 218.02439453 -19.96105469 218.91255859 -20.66894531 219.82763672 C-27.34070065 227.90397213 -37.88406987 236.67747245 -48.58691406 238.13623047 C-61.43983093 238.89302636 -72.01785329 237.73481357 -83.89941406 232.69873047 C-104.23602662 224.09605749 -122.66892716 223.91687328 -143.10498047 232.11083984 C-144.8399352 232.81789658 -146.57041764 233.53606454 -148.29541016 234.26708984 C-159.18534926 238.82456287 -171.32572056 241.74497166 -182.83691406 237.57373047 C-213.27700572 223.43034383 -234.59284276 182.35660492 -245.83691406 152.51123047 C-246.43360627 150.72396842 -247.01510665 148.93160884 -247.58691406 147.13623047 C-248.06006288 145.744028 -248.53410732 144.35212977 -249.00878906 142.96044922 C-255.34430056 124.03704234 -258.77105464 105.40867694 -258.71191406 85.44873047 C-258.71578125 84.16289062 -258.71964844 82.87705078 -258.72363281 81.55224609 C-258.7121124 70.15280075 -258.52341446 58.88110436 -255.52441406 47.82373047 C-255.31034912 47.02467285 -255.09628418 46.22561523 -254.87573242 45.40234375 C-252.50221772 37.07731718 -248.85632164 29.63746051 -244.58691406 22.13623047 C-244.10480469 21.28802734 -243.62269531 20.43982422 -243.12597656 19.56591797 C-231.09467407 0.16283476 -211.0189825 -13.73945844 -188.96191406 -19.11376953 C-173.12609089 -21.87000458 -158.77947781 -19.01984992 -143.96582031 -13.37158203 C-142.7822998 -12.92089355 -141.5987793 -12.47020508 -140.37939453 -12.00585938 C-138.02540548 -11.09684911 -135.67884933 -10.16828246 -133.34130859 -9.21777344 C-123.339932 -5.29948203 -115.15907314 -4.22725592 -105.14941406 -8.42626953 C-103.78181098 -8.97665454 -102.41327235 -9.52471899 -101.04394531 -10.07080078 C-100.32803223 -10.36164551 -99.61211914 -10.65249023 -98.87451172 -10.95214844 C-64.68746784 -24.57588609 -29.24417996 -25.28781813 0 0 Z " fill="#FEFEFE" transform="translate(609.5869140625,420.86376953125)"/>
<path d="M0 0 C0.92561993 22.44628332 -4.81442262 40.46169709 -19.703125 57.609375 C-30.86497053 69.22680606 -46.44440669 77.58585465 -62.62109375 79.2734375 C-64.8125 79.3125 -64.8125 79.3125 -68 79 C-69.9229621 77.0770379 -69.21897006 73.73971267 -69.25 71.1875 C-69.17664473 51.8194153 -59.77758184 34.52086334 -46.734375 20.578125 C-34.80475033 9.12252515 -17.03579567 -1.76638434 0 0 Z " fill="#FBFBFB" transform="translate(558,318)"/>
<path d="M0 0 C0.66 0.33 1.32 0.66 2 1 C-3.61 6.61 -9.22 12.22 -15 18 C-15 12.50089132 -9.68936771 8.76735434 -6 5 C-4.05347234 3.22256464 -2.09090037 1.6083849 0 0 Z " fill="#232323" transform="translate(614,438)"/>
</svg>
