<?xml version="1.0" encoding="UTF-8"?>
<svg version="1.1" xmlns="http://www.w3.org/2000/svg" width="1280" height="1280">
<path d="M0 0 C1.61183669 0.00222217 3.22367344 0.0043987 4.83551025 0.00653076 C26.80163124 0.04679475 48.65036886 0.19766043 70.46679688 3.03387451 C72.81784846 3.33739687 75.170451 3.62642649 77.5234375 3.91455078 C161.19743878 14.27226082 243.49258221 39.95541283 336.625 94.3125 C337.51687012 94.85648437 338.40874023 95.40046875 339.32763672 95.9609375 C380.07614823 120.92484582 418.07731552 151.28095469 451.625 185.3125 C454.67384429 188.37189393 457.73757157 191.41598242 460.8046875 194.45703125 C462.36985315 196.01295899 463.9349557 197.5689502 465.5 199.125 C466.66595703 200.27838867 466.66595703 200.27838867 467.85546875 201.45507812 C472.66129733 206.24071415 477.22532386 211.15246124 481.625 216.3125 C482.57493685 217.40675724 483.52543061 218.50053133 484.4765625 219.59375 C497.21308028 234.34093818 509.25445741 249.48445447 520.625 265.3125 C521.21458496 266.13298828 521.80416992 266.95347656 522.41162109 267.79882812 C530.92837922 279.70042184 538.99492817 291.82443279 546.625 304.3125 C547.12290039 305.12283691 547.62080078 305.93317383 548.13378906 306.76806641 C590.43512312 375.91603526 618.92254858 452.63056547 637.625 568.3125 C637.85147217 570.12886963 637.85147217 570.12886963 638.08251953 571.98193359 C643.54586276 616.84971354 643.44798101 665.41412937 637.87823486 710.26495361 C637.61214619 712.41643031 637.35798018 714.56911513 637.10498047 716.72216797 C629.16273851 783.49102137 610.78827467 848.26510435 582.625 909.3125 C582.11855957 910.41045898 581.61211914 911.50841797 581.09033203 912.63964844 C574.05127474 927.79236211 566.42633319 942.47454108 558.01757812 956.91064453 C556.81082215 958.9920024 555.6244888 961.08219397 554.453125 963.18359375 C538.9992302 990.80264128 520.43161404 1016.66847107 500.625 1041.3125 C499.87992188 1042.240625 499.13484375 1043.16875 498.3671875 1044.125 C488.52142134 1056.26458265 478.25702083 1067.94488041 467.51953125 1079.30029297 C465.51295112 1081.43150861 463.52113402 1083.5758487 461.53125 1085.72265625 C455.1504757 1092.58844425 448.8059192 1099.31967365 441.72265625 1105.46875 C439.72792244 1107.22203558 437.85850882 1109.04157153 436 1110.9375 C432.38025689 1114.60740121 428.53773936 1117.95963229 424.625 1121.3125 C423.60518849 1122.1962913 422.58568012 1123.08043245 421.56640625 1123.96484375 C406.75491406 1136.78355607 391.51773076 1148.85857873 375.625 1160.3125 C374.89104004 1160.84262695 374.15708008 1161.37275391 373.40087891 1161.91894531 C351.13959215 1177.95270118 327.79382216 1192.33546463 303.625 1205.3125 C302.15015137 1206.10527344 302.15015137 1206.10527344 300.64550781 1206.9140625 C230.553752 1244.387592 153.66647828 1267.92381489 74.76184082 1277.0625 C72.70954465 1277.30260869 70.65899059 1277.55439749 68.60839844 1277.80859375 C23.10647953 1283.23964893 -25.92631122 1283.08510297 -71.375 1277.3125 C-72.82897607 1277.13811063 -74.28308254 1276.96480575 -75.73730469 1276.79248047 C-171.95722214 1265.28521417 -265.55312198 1232.15930088 -419.0625 1124.75 C-419.87968506 1124.04617188 -419.87968506 1124.04617188 -420.71337891 1123.328125 C-432.43173571 1113.12457183 -443.52979343 1102.31921567 -454.49755859 1091.3203125 C-456.76415993 1089.04830631 -459.03611959 1086.78175556 -461.30859375 1084.515625 C-462.77636271 1083.04719583 -464.24382176 1081.5784568 -465.7109375 1080.109375 C-466.37773529 1079.44460144 -467.04453308 1078.77982788 -467.73153687 1078.09490967 C-472.14351102 1073.66114472 -476.30410116 1069.06010753 -480.375 1064.3125 C-481.32501203 1063.21830803 -482.27544365 1062.12448001 -483.2265625 1061.03125 C-495.96308028 1046.28406182 -508.00445741 1031.14054553 -519.375 1015.3125 C-519.96458496 1014.49201172 -520.55416992 1013.67152344 -521.16162109 1012.82617188 C-529.67787156 1000.92528759 -537.75242785 988.80449812 -545.375 976.3125 C-545.88353516 975.48089355 -546.39207031 974.64928711 -546.91601562 973.79248047 C-578.54919027 921.80258977 -602.42592192 866.02707404 -618.375 807.3125 C-618.84631348 805.58797607 -618.84631348 805.58797607 -619.32714844 803.82861328 C-626.62287481 776.82196767 -631.70425362 749.36870473 -635.1875 721.625 C-635.28677795 720.84233765 -635.38605591 720.05967529 -635.48834229 719.2532959 C-636.19422247 713.61369574 -636.81175975 707.96806285 -637.375 702.3125 C-637.4682254 701.38667114 -637.56145081 700.46084229 -637.65750122 699.50695801 C-639.55647386 679.98288607 -639.7352478 660.53174401 -639.6875 640.9375 C-639.68527783 639.32566331 -639.6831013 637.71382656 -639.68096924 636.10198975 C-639.64070525 614.13586876 -639.48983957 592.28713114 -636.65362549 570.47070312 C-636.35010313 568.11965154 -636.06107351 565.767049 -635.77294922 563.4140625 C-627.49201427 496.51713651 -609.64290942 431.20837925 -580.74121094 370.20507812 C-579.37655132 367.3157845 -578.03441041 364.41684077 -576.6953125 361.515625 C-570.73216245 348.69626134 -564.13659231 336.34978256 -557.01904297 324.13574219 C-555.40872373 321.37041227 -553.81495695 318.59604641 -552.22265625 315.8203125 C-525.56660643 269.69167337 -492.31988149 226.7178808 -454.375 189.3125 C-451.31560607 186.26365571 -448.27151758 183.19992843 -445.23046875 180.1328125 C-443.67454101 178.56764685 -442.1185498 177.0025443 -440.5625 175.4375 C-439.79357422 174.66019531 -439.02464844 173.88289062 -438.23242188 173.08203125 C-433.44678585 168.27620267 -428.53503876 163.71217614 -423.375 159.3125 C-422.28074276 158.36256315 -421.18696867 157.41206939 -420.09375 156.4609375 C-405.34656182 143.72441972 -390.20304553 131.68304259 -374.375 120.3125 C-373.55451172 119.72291504 -372.73402344 119.13333008 -371.88867188 118.52587891 C-359.98778759 110.00962844 -347.86699812 101.93507215 -335.375 94.3125 C-334.54339355 93.80396484 -333.71178711 93.29542969 -332.85498047 92.77148438 C-259.17509655 47.94106438 -177.39636549 18.56882717 -77.0625 4 C-75.85722656 3.85272461 -74.65195312 3.70544922 -73.41015625 3.55371094 C-69.40219324 3.09562737 -65.3908221 2.69353317 -61.375 2.3125 C-60.06390259 2.18329666 -60.06390259 2.18329666 -58.72631836 2.05148315 C-39.14306621 0.16647648 -19.65202073 -0.0478886 0 0 Z " fill="#1977F3" transform="translate(639.375,-0.3125)"/>
<path d="M0 0 C1.63748199 0.00515121 1.63748199 0.00515121 3.30804443 0.01040649 C48.83773618 0.17728051 95.9576976 3.30403952 140.6875 12.25 C140.6875 64.39 140.6875 116.53 140.6875 170.25 C94.4375 170.5625 94.4375 170.5625 79.95996094 170.63793945 C75.58936905 170.67460313 75.58936905 170.67460313 71.21881104 170.7150116 C69.30722614 170.7309154 67.39559016 170.74136746 65.48394775 170.74711609 C36.0102485 170.84728121 7.49960954 174.99441997 -15.3125 195.25 C-15.99828125 195.84167969 -16.6840625 196.43335938 -17.390625 197.04296875 C-32.4240363 210.92224021 -38.88934629 230.63461382 -42.3125 250.25 C-42.56557419 251.64853966 -42.56557419 251.64853966 -42.82376099 253.07533264 C-43.62396909 258.76895836 -43.49070019 264.51547838 -43.51782227 270.25366211 C-43.52785499 271.57282655 -43.53788771 272.89199099 -43.54822445 274.2511301 C-43.57515034 277.80394945 -43.59639172 281.35678102 -43.61641693 284.90964508 C-43.63611343 288.24939837 -43.66098817 291.58911149 -43.6854248 294.92883301 C-43.75379288 304.68168709 -43.8138966 314.4345977 -43.875 324.1875 C-44.019375 345.988125 -44.16375 367.78875 -44.3125 390.25 C14.0975 390.25 72.5075 390.25 132.6875 390.25 C131.53919253 406.32630465 131.53919253 406.32630465 130.26171875 414.28515625 C130.11828537 415.2095047 129.97485199 416.13385315 129.82707214 417.08621216 C129.34838759 420.16250179 128.86161707 423.23745605 128.375 426.3125 C128.02629531 428.54524136 127.67817012 430.7780733 127.33056641 433.01098633 C126.45183001 438.64772149 125.56787159 444.28362108 124.68193436 449.91922855 C122.69389505 462.56861714 120.71895357 475.22006254 118.74393463 487.87148952 C118.08852503 492.06983071 117.43269079 496.26810453 116.77581787 500.46621704 C113.49142413 521.45985888 110.24621216 542.45656486 107.29833984 563.50073242 C107.19175552 564.25180771 107.0851712 565.002883 106.97535706 565.77671814 C106.70058949 567.71556977 106.43073882 569.65511654 106.16137695 571.59472656 C105.6875 574.25 105.6875 574.25 104.6875 575.25 C55.5175 575.25 6.3475 575.25 -44.3125 575.25 C-44.3125 723.09 -44.3125 870.93 -44.3125 1023.25 C-111.43259743 1032.83858535 -177.20272141 1032.83711123 -244.3125 1023.25 C-244.3125 875.41 -244.3125 727.57 -244.3125 575.25 C-298.1025 575.25 -351.8925 575.25 -407.3125 575.25 C-407.3125 514.2 -407.3125 453.15 -407.3125 390.25 C-353.5225 390.25 -299.7325 390.25 -244.3125 390.25 C-244.47023275 337.52469608 -244.47023275 337.52469608 -244.67285156 284.79956055 C-244.69091797 274.48400879 -244.69091797 274.48400879 -244.6942749 269.61897278 C-244.69792589 266.29956337 -244.71260071 262.98042316 -244.73480225 259.66108704 C-245.20084083 186.64372238 -229.166184 115.78206508 -176.6875 62.25 C-145.24290318 30.90256975 -102.83247405 12.6536717 -59.6875 4.4375 C-58.67743896 4.24260986 -57.66737793 4.04771973 -56.62670898 3.84692383 C-37.87219936 0.49911623 -19.00432372 -0.09881532 0 0 Z " fill="#FDFDFD" transform="translate(784.3125,249.75)"/>
</svg>
